<?xml version="1.0" encoding="UTF-8"?>
<svg id="Layer_1" xmlns="http://www.w3.org/2000/svg" version="1.1" viewBox="0 0 11329.1 3000">
  <!-- Generator: Adobe Illustrator 29.6.1, SVG Export Plug-In . SVG Version: 2.1.1 Build 9)  -->
  <defs>
    <style>
      .st0 {
        fill: #438280;
      }

      .st1 {
        fill: #254949;
      }
    </style>
  </defs>
  <g>
    <g>
      <path class="st1" d="M1942.9,1723.1s-554.7-2.1-557.2-2.1l153.5-153.5,151.6-151.6,330.9,330.9,35.7,35.7h0v-71.7l-169-169-179.8-179.9h0l-7.5-7.5-10.5-10.5h0l-168.8-168.8,168.8-169,366.6,366.6v-71.7l-130.9-130.9-37.6-37.6-198.1-198.1-837.1,837.6,1142.5-.6-53.2-48.6v.2h0ZM1330.4,1704.6l-16.9,16.9h-337.8l510.3-510.3,169,169-300.8,300.8-23.7,23.7h0Z"/>
      <polyline class="st0" points="2057.4 2192.2 2057.4 2120.5 1888.5 1951.7 2031.8 1808.3 1995.9 1772.5 1817 1951.7"/>
      <polygon class="st0" points="2057.4 807.8 1906.3 1099.3 1943.9 1136.8 2057.4 917.9 2057.4 807.8"/>
    </g>
    <g>
      <path class="st1" d="M2118.7,1771.7l1142.5.6-837.2-837.3-198.1,198.1-37.6,37.6-130.9,130.9v71.7l366.6-366.6,168.8,169-168.8,168.8h0l-10.5,10.5-7.5,7.5h0l-179.8,179.9-169,169v71.7h0l35.7-35.7,330.9-330.9,151.6,151.6,153.5,153.5c-2.5,0-557.2,2.1-557.2,2.1l-53.2,48.6v-.2l.2-.4ZM2760.7,1680.9l-300.8-300.8,169-169,510.3,510.3h-337.8l-16.9-16.9-23.7-23.7h-.1Z"/>
      <polyline class="st0" points="2226.2 1951.7 2082.9 1808.3 2118.7 1772.5 2297.8 1951.7 2057.3 2192.2 2057.3 2120.5"/>
      <polygon class="st0" points="2057.4 807.8 2208.4 1099.3 2170.9 1136.8 2057.4 917.9 2057.4 807.8"/>
    </g>
  </g>
  <g>
    <g>
      <path class="st1" d="M3779,1606.1v-517h118.9v517h-118.9ZM3885.4,1487.9l-5.9-138.1,247.4-260.7h132.9l-222.3,240-67.9,70.9-84.2,87.9ZM4132.8,1606.1l-183.9-224.5,78.3-85.7,245.9,310.2h-140.3Z"/>
      <path class="st1" d="M4325.5,1606.1v-517h120.4v517h-120.4ZM4436.3,1394.1v-101.2h252.6v101.2h-252.6ZM4680.1,1606.1v-517h119.6v517h-119.6Z"/>
      <path class="st1" d="M5152,1614.9c-73.4,0-130.7-20.4-172.1-61.3-41.4-40.9-62-99.5-62-175.8v-288.8h120.4v285.8c0,48.7,10.1,84.1,30.3,106,20.2,21.9,48.2,32.9,84.2,32.9s64.7-11,84.9-32.9c20.2-21.9,30.3-57.2,30.3-106v-285.8h117.4v288.8c0,76.3-20.7,134.9-62,175.8-41.4,40.9-98.5,61.3-171.3,61.3Z"/>
      <path class="st1" d="M5504.3,1606.1v-517h234.9c56.1,0,105.6,10.7,148.5,32.1s76.3,51.5,100.4,90.1c24.1,38.7,36.2,84.1,36.2,136.3s-12.1,97.6-36.2,136.3c-24.1,38.7-57.6,68.7-100.4,90.1-42.8,21.4-92.3,32.1-148.5,32.1h-234.9ZM5624.7,1508.6h108.6c34.5,0,64.4-6.5,89.7-19.6,25.4-13,45.1-31.8,59.1-56.1,14-24.4,21-52.8,21-85.3s-7-61.5-21-85.7c-14-24.1-33.7-42.7-59.1-55.8-25.4-13-55.3-19.6-89.7-19.6h-108.6v322Z"/>
      <path class="st1" d="M6114.4,1606.1v-517h120.4v517h-120.4Z"/>
      <path class="st0" d="M6565.6,1606.1v-517h120.4v517h-120.4Z"/>
      <path class="st0" d="M6807.9,1606.1v-517h99l305,372.2h-48v-372.2h118.2v517h-99l-305-372.2h48v372.2h-118.2Z"/>
      <path class="st0" d="M7575.2,1614.9c-41.4,0-81.1-5.5-119.3-16.6-38.2-11.1-68.8-25.5-92-43.2l40.6-90.1c21.7,15.8,47.8,28.7,78.3,38.8,30.5,10.1,61.3,15.1,92.3,15.1s42.7-2.5,57.2-7.4c14.5-4.9,25.2-11.4,32.1-19.6,6.9-8.1,10.3-17.6,10.3-28.4s-5.4-24.7-16.2-32.9c-10.8-8.1-25.2-14.8-43.2-19.9-18-5.2-37.6-10.1-58.7-14.8-21.2-4.7-42.5-10.3-63.9-17-21.4-6.6-41.1-15.5-59.1-26.6-18-11.1-32.3-25.6-42.8-43.6-10.6-18-15.9-40.5-15.9-67.6s7.9-56.5,23.6-80.9c15.8-24.4,39.8-43.8,72-58.3,32.2-14.5,72.7-21.8,121.5-21.8s64.6,3.9,96.4,11.8c31.8,7.9,59.5,19.2,83.1,34l-37.7,90.1c-23.1-13.3-47-23.3-71.6-29.9-24.6-6.6-48.3-10-70.9-10s-42.6,2.6-56.9,7.8c-14.3,5.2-24.7,12.2-31.4,21-6.6,8.9-10,18.7-10,29.5s5.4,24.9,16.2,33.2c10.8,8.4,25.1,14.9,42.8,19.6,17.7,4.7,37.4,9.4,59.1,14,21.7,4.7,43.1,10.5,64.3,17.4,21.2,6.9,40.6,15.6,58.3,26.2,17.7,10.6,32.1,24.9,43.2,42.8,11.1,18,16.6,40.3,16.6,66.8s-8,55.6-24,79.8c-16,24.1-40.3,43.6-72.7,58.3-32.5,14.8-73.1,22.2-121.9,22.2Z"/>
      <path class="st0" d="M7975.5,1606.1v-419.5h-165.4v-97.5h450.5v97.5h-165.4v419.5h-119.6Z"/>
      <path class="st0" d="M8324.9,1606.1v-517h120.4v517h-120.4Z"/>
      <path class="st0" d="M8674.2,1606.1v-419.5h-165.4v-97.5h450.5v97.5h-165.4v419.5h-119.6Z"/>
      <path class="st0" d="M9242.9,1614.9c-73.4,0-130.7-20.4-172.1-61.3-41.4-40.9-62-99.5-62-175.8v-288.8h120.4v285.8c0,48.7,10.1,84.1,30.3,106,20.2,21.9,48.2,32.9,84.2,32.9s64.7-11,84.9-32.9c20.2-21.9,30.3-57.2,30.3-106v-285.8h117.4v288.8c0,76.3-20.7,134.9-62,175.8-41.4,40.9-98.5,61.3-171.3,61.3Z"/>
      <path class="st0" d="M9692,1606.1v-419.5h-165.4v-97.5h450.5v97.5h-165.4v419.5h-119.6Z"/>
      <path class="st0" d="M10041.3,1606.1v-517h390.7v96h-271.8v325h281.4v96h-400.3ZM10151.4,1390.4v-93.8h248.9v93.8h-248.9Z"/>
    </g>
    <g>
      <path class="st1" d="M3787.5,1977.1v-154.1h28.6v154.1h-28.6ZM3812.9,1940.6l-1.3-34,80.5-83.9h32.3l-67.1,71.4-15.9,17.4-28.6,29.1h0ZM3894.9,1977.1l-59.2-70.2,19.2-20.9,73.8,91.2h-33.8Z"/>
      <path class="st1" d="M3943.5,1977.1v-117.5h26.2v31.9l-4.7-9.9c3.9-7.5,9.9-13.3,17.7-17.4,7.8-4.1,17-6.2,27.3-6.2s17.9,1.9,25.2,5.4c7.3,3.7,13.1,9.3,17.4,17,4.3,7.7,6.5,17.4,6.5,29.3v67.4h-27.5v-63.9c0-10.5-2.4-18.1-7.3-23.4-4.9-5.2-11.8-7.7-20.7-7.7s-12.1,1.3-17.2,3.9c-5,2.6-8.8,6.5-11.6,11.8s-4.1,11.8-4.1,19.6v59.4h-27.3Z"/>
      <path class="st1" d="M4147.1,1978.5c-12,0-22.6-2.6-31.9-7.8-9.5-5.2-17-12.3-22.4-21.5s-8.2-19.4-8.2-31,2.8-22.2,8.2-31.2c5.4-9,12.9-16.1,22.2-21.3,9.3-5.2,20.2-7.8,32.1-7.8s23,2.6,32.5,7.8c9.5,5.2,16.8,12.3,22.2,21.3,5.4,9,8,19.4,8,31.2s-2.6,22-8,31.2c-5.4,9-12.9,16.1-22.4,21.3-9.5,5.2-20.4,7.8-32.3,7.8h0ZM4147.1,1955.2c6.7,0,12.7-1.5,18.1-4.5,5.2-3,9.3-7.3,12.5-13.1,3-5.6,4.5-12.1,4.5-19.4s-1.5-14-4.5-19.4c-3-5.4-7.1-9.7-12.5-12.7-5.2-3-11.2-4.5-17.7-4.5s-12.5,1.5-17.7,4.5c-5.2,3-9.5,7.3-12.5,12.7-3.2,5.4-4.7,12-4.7,19.4s1.5,13.8,4.7,19.4c3,5.6,7.3,9.9,12.5,13.1,5.2,3,11.2,4.5,17.6,4.5h-.2Z"/>
      <path class="st1" d="M4258.8,1977.1l-43.2-117.5h26l37.2,103.7h-12.5l38.7-103.7h23.2l37.9,103.7h-12.3l38.1-103.7h24.5l-43.3,117.5h-26.3l-34.2-91.7h7.8l-34.9,91.7h-26.5,0Z"/>
      <path class="st1" d="M4435.6,1977.1v-163.5h27.3v163.5h-27.3Z"/>
      <path class="st1" d="M4554.2,1978.5c-13.1,0-24.5-2.6-34.2-7.8-9.7-5.2-17.4-12.3-22.6-21.3-5.4-9-8-19.4-8-31.2s2.6-22,7.8-31.2c5.2-9,12.3-16.1,21.7-21.3,9.2-5.2,19.6-7.8,31.4-7.8s21.7,2.6,30.6,7.7c9,5,16.1,12.1,21.1,21.3,5.2,9.2,7.7,19.8,7.7,32.3s0,2.2,0,3.9,0,3-.4,4.1h-97.9v-18.3h83.5l-11,5.8c0-6.5-1.1-12.5-4.1-17.7-2.8-5.2-6.7-9.3-11.8-12.1s-10.8-4.3-17.6-4.3-12.5,1.5-17.7,4.3-9.2,6.9-12,12.1-4.1,11.4-4.1,18.3v4.5c0,7.1,1.5,13.3,4.7,18.7s7.7,9.7,13.5,12.7c5.8,3,12.7,4.5,20.6,4.5s12.5-1.1,17.7-3.4,9.9-5.4,14-9.7l14.9,17.2c-5.4,6.2-12.1,10.8-20.2,14-8,3.2-17.2,4.9-27.5,4.9h-.2Z"/>
      <path class="st1" d="M4685.7,1978.5c-11.4,0-21.5-2.4-30.5-7.5s-16.1-12-21.3-21.1c-5.2-9-7.7-19.6-7.7-31.8s2.6-22.6,7.7-31.8c5-9.2,12.1-16.1,21.3-21.1,9-5,19.2-7.5,30.5-7.5s18.7,2.2,26.3,6.5c7.8,4.3,14,11,18.5,19.8,4.5,9,6.9,20.2,6.9,34s-2.2,25-6.5,34c-4.5,9-10.5,15.5-18.1,20-7.7,4.3-16.6,6.5-26.9,6.5h-.2v-.2ZM4688.9,1955.2c6.5,0,12.5-1.5,17.7-4.5,5.2-3,9.3-7.3,12.5-13.1,3.2-5.6,4.7-12.1,4.7-19.4s-1.5-14-4.7-19.4-7.3-9.7-12.5-12.7-11.2-4.5-17.7-4.5-12.5,1.5-17.7,4.5c-5.2,3-9.3,7.3-12.5,12.7-3.2,5.4-4.7,12-4.7,19.4s1.5,13.8,4.7,19.4c3.2,5.6,7.3,9.9,12.5,13.1,5.2,3,11.2,4.5,17.7,4.5ZM4724.8,1977.1v-27.7l.7-31.2-2.2-31.2v-73h27.8v163.5h-26.2v-.4h-.2Z"/>
      <path class="st1" d="M4836.9,1971.8c-11.4,0-21.5-2.4-30.5-7.1-9-4.9-16.1-11.4-21.3-20-5.2-8.6-7.8-18.5-7.8-29.7s2.6-21.5,7.8-30.1c5.2-8.6,12.3-15.3,21.3-20,9-4.7,19.1-7.1,30.5-7.1s19.1,2.1,26.9,6c8,4.1,14.4,10.3,19.1,18.7,4.7,8.4,7.1,19.2,7.1,32.3s-2.4,23.5-7.1,31.9-11,14.6-19.1,18.7c-8,4.1-17,6.2-26.9,6.2h0v.2ZM4840.4,2021.3c-11,0-21.7-1.5-31.8-4.3-10.3-2.8-18.7-7.1-25.4-12.7l12.3-20.6c5.2,4.3,11.6,7.7,19.4,10.3,7.8,2.6,15.9,3.9,24.3,3.9,12.7,0,22.2-3,28.2-9,6-6,9-14.9,9-26.9v-20.9l2.2-26.3-.9-26.7v-28.8h26.2v99.8c0,21.3-5.4,37-16.3,47.1-10.8,10.1-26.5,15.1-47.1,15.1h-.2ZM4841.2,1948.5c6.9,0,13.1-1.5,18.5-4.3,5.4-2.8,9.7-6.9,12.7-12,3-5,4.5-10.8,4.5-17.4s-1.5-12.7-4.5-17.6c-3-5-7.3-9-12.7-11.6-5.4-2.8-11.6-4.1-18.5-4.1s-13.1,1.3-18.7,4.1c-5.4,2.8-9.7,6.7-12.7,11.6-3,5-4.5,10.8-4.5,17.6s1.5,12.1,4.5,17.4c3,5,7.3,9,12.7,12,5.4,2.8,11.8,4.3,18.7,4.3Z"/>
      <path class="st1" d="M4995.3,1978.5c-13.1,0-24.5-2.6-34.2-7.8-9.7-5.2-17.4-12.3-22.6-21.3-5.4-9-8-19.4-8-31.2s2.6-22,7.8-31.2c5.2-9,12.3-16.1,21.7-21.3,9.2-5.2,19.6-7.8,31.4-7.8s21.7,2.6,30.6,7.7c9,5,16.1,12.1,21.1,21.3,5.2,9.2,7.7,19.8,7.7,32.3s0,2.2,0,3.9,0,3-.4,4.1h-97.9v-18.3h83.5l-11,5.8c0-6.5-1.1-12.5-4.1-17.7-2.8-5.2-6.7-9.3-11.8-12.1s-10.8-4.3-17.6-4.3-12.5,1.5-17.7,4.3-9.2,6.9-12,12.1-4.1,11.4-4.1,18.3v4.5c0,7.1,1.5,13.3,4.7,18.7s7.7,9.7,13.5,12.7c5.8,3,12.7,4.5,20.6,4.5s12.5-1.1,17.7-3.4,9.9-5.4,14-9.7l14.9,17.2c-5.4,6.2-12.1,10.8-20.2,14-8,3.2-17.2,4.9-27.5,4.9h-.2Z"/>
      <path class="st1" d="M5140.3,1977.1v-154.1h28.6v154.1h-28.6ZM5166.8,1910.9v-24.5h84.1v24.5h-84.1ZM5248.6,1977.1v-154.1h28.4v154.1h-28.4Z"/>
      <path class="st1" d="M5365.8,1978.5c-9.9,0-18.9-1.9-26.3-5.6-7.7-3.7-13.6-9.5-17.9-17.2-4.3-7.7-6.5-17.4-6.5-29.1v-67.1h27.7v63.7c0,10.5,2.4,18.3,7.3,23.5,4.9,5.2,11.6,7.8,20.2,7.8s12.1-1.3,17-3.9c4.9-2.6,8.6-6.5,11.2-12,2.6-5.2,3.9-11.8,3.9-19.6v-59.4h27.5v117.5h-26.2v-31.9l4.7,9.9c-3.9,7.5-9.7,13.3-17.4,17.4s-16.1,6.2-25,6.2h0v-.2Z"/>
      <path class="st1" d="M5466.3,1977.1v-163.5h27.3v73l-2.2,31.2,1.1,31.2v27.7h-26.2v.4h0ZM5531.1,1978.5c-9.9,0-18.7-2.2-26.7-6.5-7.8-4.3-14-11-18.3-20s-6.5-20.2-6.5-34,2.2-25.2,6.9-34c4.5-9,10.6-15.5,18.5-19.8s16.4-6.5,26.2-6.5,21.7,2.4,30.6,7.5c9,5,16.1,12,21.3,21.1,5.2,9.2,7.8,19.6,7.8,31.8s-2.6,22.8-7.8,31.8c-5.2,9-12.3,16.1-21.3,21.1-9,5-19.2,7.5-30.6,7.5h0v.2ZM5527.9,1955.2c6.7,0,12.7-1.5,17.9-4.5,5.2-3,9.3-7.3,12.5-13.1,3.2-5.6,4.7-12.1,4.7-19.4s-1.5-14-4.7-19.4c-3-5.4-7.3-9.7-12.5-12.7s-11.2-4.5-17.9-4.5-12.3,1.5-17.6,4.5c-5.2,3-9.5,7.3-12.5,12.7-3,5.4-4.7,12-4.7,19.4s1.5,13.8,4.7,19.4c3.2,5.6,7.3,9.9,12.5,13.1,5.2,3,11.2,4.5,17.6,4.5Z"/>
      <path class="st1" d="M5662.3,1882.3v-22h78.5v22h-78.5ZM5681.5,1977.1v-124.1c0-12.5,3.5-22.4,10.8-29.9,7.3-7.5,17.6-11.2,31.2-11.2s9.3.6,13.8,1.5c4.3,1.1,8,2.6,10.8,4.9l-7.7,20.6c-1.9-1.3-4.1-2.4-6.9-3.4-2.6-.9-5.4-1.3-8.2-1.3-5.8,0-10.1,1.5-13.1,4.7s-4.5,7.8-4.5,14v13.6l.7,12.1v98.3h-27.3.2v.2Z"/>
      <path class="st1" d="M5810.2,1978.5c-12,0-22.6-2.6-31.9-7.8-9.5-5.2-17-12.3-22.4-21.5-5.4-9.2-8.2-19.4-8.2-31s2.8-22.2,8.2-31.2,12.9-16.1,22.2-21.3c9.3-5.2,20.2-7.8,32.1-7.8s23,2.6,32.5,7.8c9.5,5.2,16.8,12.3,22.2,21.3,5.4,9,8,19.4,8,31.2s-2.6,22-8,31.2c-5.4,9-12.9,16.1-22.4,21.3-9.5,5.2-20.4,7.8-32.3,7.8h0ZM5810.2,1955.2c6.7,0,12.7-1.5,18.1-4.5,5.2-3,9.3-7.3,12.5-13.1,3-5.6,4.5-12.1,4.5-19.4s-1.5-14-4.5-19.4c-3-5.4-7.1-9.7-12.5-12.7-5.2-3-11.2-4.5-17.7-4.5s-12.5,1.5-17.7,4.5c-5.2,3-9.5,7.3-12.5,12.7-3.2,5.4-4.7,12-4.7,19.4s1.5,13.8,4.7,19.4c3,5.6,7.3,9.9,12.5,13.1,5.2,3,11.2,4.5,17.6,4.5h-.2Z"/>
      <path class="st1" d="M5899.5,1977.1v-117.5h26.2v32.3l-3-9.5c3.4-7.8,9-14,16.4-18.1,7.7-4.1,17-6.4,28-6.4v26.2c-.9,0-2.1-.2-3-.4h-2.8c-10.6,0-18.9,3-25,9s-9.3,15.1-9.3,27.5v56.8h-27.5v.2Z"/>
      <path class="st1" d="M6121.3,1979.3c-20.9,0-37.6-6-49.5-17.7-12-12-17.9-29.1-17.9-51.8v-86.7h28.6v85.9c0,15.9,3.4,27.5,10.3,34.6,6.9,7.3,16.4,10.8,29,10.8s22-3.5,28.8-10.8c6.7-7.1,10.1-18.7,10.1-34.6v-85.9h28.2v86.7c0,22.6-6,39.8-17.9,51.8s-28.6,17.7-49.7,17.7h.2Z"/>
      <path class="st1" d="M6226.5,1977.1v-117.5h26.2v31.9l-4.7-9.9c3.9-7.5,9.9-13.3,17.7-17.4,7.8-4.1,17-6.2,27.3-6.2s17.9,1.9,25.2,5.4c7.3,3.7,13.1,9.3,17.4,17,4.3,7.7,6.5,17.4,6.5,29.3v67.4h-27.5v-63.9c0-10.5-2.4-18.1-7.3-23.4s-11.8-7.7-20.7-7.7-12.1,1.3-17.2,3.9c-5,2.6-8.8,6.5-11.6,11.8s-4.1,11.8-4.1,19.6v59.4h-27.3,0Z"/>
      <path class="st1" d="M6427.1,1978.5c-11.4,0-21.5-2.4-30.5-7.5s-16.1-12-21.3-21.1c-5.2-9-7.7-19.6-7.7-31.8s2.6-22.6,7.7-31.8,12.1-16.1,21.3-21.1c9-5,19.2-7.5,30.5-7.5s18.7,2.2,26.3,6.5c7.8,4.3,14,11,18.5,19.8,4.5,9,6.9,20.2,6.9,34s-2.2,25-6.5,34c-4.5,9-10.5,15.5-18.1,20-7.7,4.3-16.6,6.5-26.9,6.5h-.2v-.2ZM6430.5,1955.2c6.5,0,12.5-1.5,17.7-4.5,5.2-3,9.3-7.3,12.5-13.1,3.2-5.6,4.7-12.1,4.7-19.4s-1.5-14-4.7-19.4-7.3-9.7-12.5-12.7c-5.2-3-11.2-4.5-17.7-4.5s-12.5,1.5-17.7,4.5c-5.2,3-9.3,7.3-12.5,12.7-3.2,5.4-4.7,12-4.7,19.4s1.5,13.8,4.7,19.4,7.3,9.9,12.5,13.1c5.2,3,11.2,4.5,17.7,4.5ZM6466.4,1977.1v-27.7l.7-31.2-2.2-31.2v-73h27.8v163.5h-26.2v-.4h-.2Z"/>
      <path class="st1" d="M6583.9,1978.5c-13.1,0-24.5-2.6-34.2-7.8-9.7-5.2-17.4-12.3-22.6-21.3-5.4-9-8-19.4-8-31.2s2.6-22,7.8-31.2c5.2-9,12.3-16.1,21.7-21.3,9.2-5.2,19.6-7.8,31.4-7.8s21.7,2.6,30.6,7.7c9,5,16.1,12.1,21.1,21.3,5.2,9.2,7.7,19.8,7.7,32.3s0,2.2,0,3.9,0,3-.4,4.1h-97.9v-18.3h83.5l-11,5.8c0-6.5-1.1-12.5-4.1-17.7-2.8-5.2-6.7-9.3-11.8-12.1-5-2.8-10.8-4.3-17.6-4.3s-12.5,1.5-17.7,4.3-9.2,6.9-12,12.1-4.1,11.4-4.1,18.3v4.5c0,7.1,1.5,13.3,4.7,18.7s7.7,9.7,13.5,12.7,12.7,4.5,20.6,4.5,12.5-1.1,17.7-3.4,9.9-5.4,14-9.7l14.9,17.2c-5.4,6.2-12.1,10.8-20.2,14-8,3.2-17.2,4.9-27.5,4.9h-.2Z"/>
      <path class="st1" d="M6665.7,1977.1v-117.5h26.2v32.3l-3-9.5c3.4-7.8,9-14,16.4-18.1,7.7-4.1,17-6.4,28-6.4v26.2c-.9,0-2.1-.2-3-.4h-2.8c-10.6,0-18.9,3-25,9s-9.3,15.1-9.3,27.5v56.8h-27.5v.2Z"/>
      <path class="st1" d="M6794.6,1978.5c-9.9,0-19.4-1.3-28.4-3.9-9-2.6-16.1-5.6-21.7-9.3l10.6-20.9c5.2,3.4,11.6,6.2,18.9,8.2,7.3,2.1,14.8,3.2,22.2,3.2s14.8-1.1,18.7-3.4,5.8-5.4,5.8-9.3-1.3-5.6-3.9-7.3-6.2-3-10.3-3.9c-4.3-.9-9-1.7-14.2-2.4-5.2-.7-10.5-1.7-15.7-3-5.2-1.3-9.9-3.2-14.2-5.4-4.3-2.4-7.7-5.6-10.3-9.7s-3.9-9.5-3.9-16.4,2.1-13.8,6.4-19.2c4.3-5.4,10.3-9.7,17.9-12.9s16.8-4.7,27.5-4.7,15.7.9,23.9,2.8c8.2,1.9,14.9,4.3,20.4,7.7l-10.8,20.9c-5.4-3.2-11-5.4-16.8-6.7-5.8-1.3-11.4-1.9-17-1.9-8.2,0-14.4,1.1-18.5,3.5-4.1,2.4-6.2,5.6-6.2,9.3s1.3,6.2,3.9,7.8,6.2,3.2,10.3,4.1c4.3.9,9,1.9,14.2,2.6,5.2.7,10.5,1.9,15.5,3,5,1.3,9.9,3,14.2,5.2,4.3,2.2,7.8,5.4,10.5,9.5,2.6,4.1,3.9,9.5,3.9,16.1s-2.2,13.8-6.5,19.2c-4.3,5.4-10.5,9.5-18.3,12.5-7.8,3-17.4,4.5-28.2,4.5h0l.2.2Z"/>
      <path class="st1" d="M6855.9,1881.4v-22h78.5v22h-78.5ZM6915.7,1978.5c-12.9,0-23-3.4-29.9-10.1-7.1-6.7-10.6-16.4-10.6-29.3v-105.7h27.3v104.8c0,5.6,1.5,9.9,4.5,13.1,3,3,7.1,4.7,12.3,4.7s11-1.7,14.9-4.9l7.8,19.6c-3.4,2.6-7.5,4.7-12.1,6-4.7,1.3-9.5,2.1-14.4,2.1h.2v-.2Z"/>
      <path class="st1" d="M6996,1978.5c-8.8,0-16.4-1.5-23.2-4.5-6.5-3-11.8-7.1-15.3-12.5-3.5-5.4-5.4-11.4-5.4-18.1s1.5-12.5,4.7-17.7c3.2-5.2,8.4-9.5,15.5-12.5,7.1-3.2,16.8-4.7,28.6-4.7h34.2v18.3h-32.1c-9.3,0-15.5,1.5-18.9,4.5-3.4,3-5,6.7-5,11.4s2.1,8.8,6,11.6c3.9,3,9.5,4.5,16.4,4.5s12.9-1.5,18.1-4.7c5.4-3.2,9.3-7.7,11.8-13.6l4.5,16.4c-2.6,6.9-7.3,12.3-14,16.1s-15.3,5.8-26,5.8h.2v-.2ZM7033,1977.1v-23.9l-1.3-4.9v-41.7c0-8-2.4-14.4-7.3-18.9-4.9-4.5-12.3-6.7-22.4-6.7s-12.9,1.1-19.2,3.2c-6.4,2.1-11.8,4.9-16.3,8.6l-10.8-20c6.5-4.9,14-8.6,22.6-11,8.6-2.4,17.7-3.7,27.1-3.7,17.2,0,30.5,4.1,39.6,12.3,9.3,8.2,13.8,20.9,13.8,37.9v68.9h-26l.2-.2Z"/>
      <path class="st1" d="M7094.5,1977.1v-117.5h26.2v31.9l-4.7-9.9c3.9-7.5,9.9-13.3,17.7-17.4,7.8-4.1,17-6.2,27.3-6.2s17.9,1.9,25.2,5.4c7.3,3.7,13.1,9.3,17.4,17s6.5,17.4,6.5,29.3v67.4h-27.5v-63.9c0-10.5-2.4-18.1-7.3-23.4s-11.8-7.7-20.7-7.7-12.1,1.3-17.2,3.9c-5,2.6-8.8,6.5-11.6,11.8s-4.1,11.8-4.1,19.6v59.4h-27.3,0Z"/>
      <path class="st1" d="M7295.1,1978.5c-11.4,0-21.5-2.4-30.5-7.5s-16.1-12-21.3-21.1c-5.2-9-7.7-19.6-7.7-31.8s2.6-22.6,7.7-31.8c5-9.2,12.1-16.1,21.3-21.1,9-5,19.2-7.5,30.5-7.5s18.7,2.2,26.3,6.5c7.8,4.3,14,11,18.5,19.8,4.5,9,6.9,20.2,6.9,34s-2.2,25-6.5,34c-4.5,9-10.5,15.5-18.1,20-7.7,4.3-16.6,6.5-26.9,6.5h-.2v-.2ZM7298.3,1955.2c6.5,0,12.5-1.5,17.7-4.5,5.2-3,9.3-7.3,12.5-13.1,3.2-5.6,4.7-12.1,4.7-19.4s-1.5-14-4.7-19.4-7.3-9.7-12.5-12.7c-5.2-3-11.2-4.5-17.7-4.5s-12.5,1.5-17.7,4.5c-5.2,3-9.3,7.3-12.5,12.7-3.2,5.4-4.7,12-4.7,19.4s1.5,13.8,4.7,19.4c3.2,5.6,7.3,9.9,12.5,13.1,5.2,3,11.2,4.5,17.7,4.5ZM7334.4,1977.1v-27.7l.7-31.2-2.2-31.2v-73h27.8v163.5h-26.2v-.4h-.2Z"/>
      <path class="st1" d="M7410.4,1840.1c-5.2,0-9.3-1.7-12.7-4.9-3.4-3.2-5-7.1-5-12s1.7-8.2,5-11.4c3.4-3.2,7.5-4.9,12.7-4.9s9.3,1.5,12.7,4.5c3.4,3,5,6.9,5,11.6s-1.7,8.8-4.9,12c-3.2,3.4-7.5,5-12.7,5h-.2ZM7396.8,1977.1v-117.5h27.3v117.5h-27.3Z"/>
      <path class="st1" d="M7460.5,1977.1v-117.5h26.2v31.9l-4.7-9.9c3.9-7.5,9.9-13.3,17.7-17.4,7.8-4.1,17-6.2,27.3-6.2s17.9,1.9,25.2,5.4c7.3,3.7,13.1,9.3,17.4,17,4.3,7.7,6.5,17.4,6.5,29.3v67.4h-27.5v-63.9c0-10.5-2.4-18.1-7.3-23.4s-11.8-7.7-20.7-7.7-12.1,1.3-17.2,3.9c-5,2.6-8.8,6.5-11.6,11.8s-4.1,11.8-4.1,19.6v59.4h-27.3,0Z"/>
      <path class="st1" d="M7661.1,1971.8c-11.4,0-21.5-2.4-30.5-7.1-9-4.9-16.1-11.4-21.3-20-5.2-8.6-7.8-18.5-7.8-29.7s2.6-21.5,7.8-30.1c5.2-8.6,12.3-15.3,21.3-20,9-4.7,19.1-7.1,30.5-7.1s19.1,2.1,26.9,6c8,4.1,14.4,10.3,19.1,18.7,4.7,8.4,7.1,19.2,7.1,32.3s-2.4,23.5-7.1,31.9c-4.7,8.4-11,14.6-19.1,18.7-8,4.1-17,6.2-26.9,6.2h0v.2ZM7664.5,2021.3c-11,0-21.7-1.5-31.8-4.3-10.3-2.8-18.7-7.1-25.4-12.7l12.3-20.6c5.2,4.3,11.6,7.7,19.4,10.3,7.8,2.6,15.9,3.9,24.3,3.9,12.7,0,22.2-3,28.2-9,6-6,9-14.9,9-26.9v-20.9l2.2-26.3-.9-26.7v-28.8h26.2v99.8c0,21.3-5.4,37-16.3,47.1-10.8,10.1-26.5,15.1-47.1,15.1h-.2ZM7665.2,1948.5c6.9,0,13.1-1.5,18.5-4.3,5.4-2.8,9.7-6.9,12.7-12,3-5,4.5-10.8,4.5-17.4s-1.5-12.7-4.5-17.6c-3-5-7.3-9-12.7-11.6-5.4-2.8-11.6-4.1-18.5-4.1s-13.1,1.3-18.7,4.1c-5.4,2.8-9.7,6.7-12.7,11.6-3,5-4.5,10.8-4.5,17.6s1.5,12.1,4.5,17.4c3,5,7.3,9,12.7,12,5.4,2.8,11.8,4.3,18.7,4.3Z"/>
      <path class="st1" d="M7756.8,2010.5l12.5-49.1,4.1,16.4c-5.2,0-9.7-1.5-13.1-4.7s-5.2-7.5-5.2-13.1,1.7-9.7,5.2-13.1c3.4-3.4,7.7-5,12.7-5s9.5,1.7,12.9,5,5,7.7,5,13.1,0,3.4-.4,5-.7,3.5-1.5,5.8c-.7,2.2-1.7,5-3.2,8.4l-11.4,31.2h-17.7Z"/>
      <path class="st1" d="M7881.2,1977.1v-154.1h67.6c16.4,0,31,3.2,43.7,9.5,12.7,6.4,22.6,15.3,29.7,26.9,7.1,11.6,10.6,25,10.6,40.5s-3.5,29-10.6,40.5c-7.1,11.6-17,20.6-29.7,26.9s-27.3,9.5-43.7,9.5h-67.6v.2ZM7909.8,1952.8h37.2c11.6,0,21.7-2.2,30.1-6.5,8.4-4.5,15.1-10.6,19.8-18.5,4.9-7.8,7.1-17.2,7.1-27.7s-2.4-20.2-7.1-28c-4.9-7.8-11.4-13.8-19.8-18.3-8.4-4.5-18.5-6.5-30.1-6.5h-37.2v105.7h0v-.2Z"/>
      <path class="st1" d="M8074.4,1840.1c-5.2,0-9.3-1.7-12.7-4.9-3.4-3.2-5-7.1-5-12s1.7-8.2,5-11.4c3.4-3.2,7.5-4.9,12.7-4.9s9.3,1.5,12.7,4.5c3.4,3,5,6.9,5,11.6s-1.7,8.8-4.9,12c-3.2,3.4-7.5,5-12.7,5h-.2ZM8060.7,1977.1v-117.5h27.3v117.5h-27.3Z"/>
      <path class="st1" d="M8160.7,1978.5c-9.9,0-19.4-1.3-28.4-3.9-9-2.6-16.1-5.6-21.7-9.3l10.6-20.9c5.2,3.4,11.6,6.2,18.9,8.2,7.3,2.1,14.8,3.2,22.2,3.2s14.8-1.1,18.7-3.4,5.8-5.4,5.8-9.3-1.3-5.6-3.9-7.3-6.2-3-10.3-3.9c-4.3-.9-9-1.7-14.2-2.4-5.2-.7-10.5-1.7-15.7-3-5.2-1.3-9.9-3.2-14.2-5.4-4.3-2.4-7.7-5.6-10.3-9.7-2.6-4.1-3.9-9.5-3.9-16.4s2.1-13.8,6.4-19.2c4.3-5.4,10.3-9.7,17.9-12.9s16.8-4.7,27.5-4.7,15.7.9,23.9,2.8c8.2,1.9,14.9,4.3,20.4,7.7l-10.8,20.9c-5.4-3.2-11-5.4-16.8-6.7-5.8-1.3-11.4-1.9-17-1.9-8.2,0-14.4,1.1-18.5,3.5-4.1,2.4-6.2,5.6-6.2,9.3s1.3,6.2,3.9,7.8,6.2,3.2,10.3,4.1c4.3.9,9,1.9,14.2,2.6,5.2.7,10.5,1.9,15.5,3,5,1.3,9.9,3,14.2,5.2,4.3,2.2,7.8,5.4,10.5,9.5,2.6,4.1,3.9,9.5,3.9,16.1s-2.2,13.8-6.5,19.2c-4.3,5.4-10.5,9.5-18.3,12.5-7.8,3-17.4,4.5-28.2,4.5h0l.2.2Z"/>
      <path class="st1" d="M8291.5,1978.5c-12.3,0-23.4-2.6-32.9-7.8-9.5-5.2-17.2-12.3-22.6-21.3-5.4-9-8.2-19.4-8.2-31.2s2.8-22.2,8.2-31.2,12.9-16.1,22.6-21.3c9.5-5.2,20.6-7.8,32.9-7.8s21.3,2.4,30.1,7.1c8.8,4.7,15.3,11.6,19.8,20.6l-20.9,12.3c-3.5-5.4-7.8-9.5-12.9-12.1-5-2.8-10.5-4.1-16.4-4.1s-12.9,1.5-18.3,4.5c-5.4,3-9.7,7.3-12.7,12.7-3.2,5.4-4.7,12-4.7,19.4s1.5,14,4.7,19.6c3,5.6,7.3,9.9,12.7,12.9,5.4,3,11.6,4.5,18.3,4.5s11.4-1.3,16.4-4.1c5-2.8,9.3-6.9,12.9-12.5l20.9,12.3c-4.5,8.8-11,15.5-19.8,20.4-8.8,4.9-18.9,7.1-30.1,7.1h0v.2Z"/>
      <path class="st1" d="M8416.4,1978.5c-12,0-22.6-2.6-31.9-7.8-9.5-5.2-17-12.3-22.4-21.5-5.4-9.2-8.2-19.4-8.2-31s2.8-22.2,8.2-31.2c5.4-9,12.9-16.1,22.2-21.3,9.3-5.2,20.2-7.8,32.1-7.8s23,2.6,32.5,7.8,16.8,12.3,22.2,21.3c5.4,9,8,19.4,8,31.2s-2.6,22-8,31.2c-5.4,9-12.9,16.1-22.4,21.3-9.5,5.2-20.4,7.8-32.3,7.8h0ZM8416.4,1955.2c6.7,0,12.7-1.5,18.1-4.5,5.2-3,9.3-7.3,12.5-13.1,3-5.6,4.5-12.1,4.5-19.4s-1.5-14-4.5-19.4-7.1-9.7-12.5-12.7c-5.2-3-11.2-4.5-17.7-4.5s-12.5,1.5-17.7,4.5c-5.2,3-9.5,7.3-12.5,12.7-3.2,5.4-4.7,12-4.7,19.4s1.5,13.8,4.7,19.4c3,5.6,7.3,9.9,12.5,13.1,5.2,3,11.2,4.5,17.6,4.5h-.2Z"/>
      <path class="st1" d="M8533.6,1977.1l-50.4-117.5h28.4l43.5,103.7h-14l44.8-103.7h26.3l-50.4,117.5h-28.4.2Z"/>
      <path class="st1" d="M8681.5,1978.5c-13.1,0-24.5-2.6-34.2-7.8-9.7-5.2-17.4-12.3-22.6-21.3-5.4-9-8-19.4-8-31.2s2.6-22,7.8-31.2c5.2-9,12.3-16.1,21.7-21.3,9.2-5.2,19.6-7.8,31.4-7.8s21.7,2.6,30.6,7.7c9,5,16.1,12.1,21.1,21.3,5.2,9.2,7.7,19.8,7.7,32.3s0,2.2,0,3.9,0,3-.4,4.1h-97.9v-18.3h83.5l-11,5.8c0-6.5-1.1-12.5-4.1-17.7-2.8-5.2-6.7-9.3-11.8-12.1-5-2.8-10.8-4.3-17.6-4.3s-12.5,1.5-17.7,4.3-9.2,6.9-12,12.1c-2.8,5.2-4.1,11.4-4.1,18.3v4.5c0,7.1,1.5,13.3,4.7,18.7s7.7,9.7,13.5,12.7c5.8,3,12.7,4.5,20.6,4.5s12.5-1.1,17.7-3.4,9.9-5.4,14-9.7l14.9,17.2c-5.4,6.2-12.1,10.8-20.2,14-8,3.2-17.2,4.9-27.5,4.9h-.2Z"/>
      <path class="st1" d="M8763.6,1977.1v-117.5h26.2v32.3l-3-9.5c3.4-7.8,9-14,16.4-18.1,7.7-4.1,17-6.4,28-6.4v26.2c-.9,0-2.1-.2-3-.4h-2.8c-10.6,0-18.9,3-25,9s-9.3,15.1-9.3,27.5v56.8h-27.5v.2Z"/>
      <path class="st1" d="M8865.8,2021.3c-5.8,0-11.6-.9-17.4-2.8-5.8-1.9-10.5-4.5-14-7.8l10.8-20c2.8,2.4,6,4.3,9.3,5.8,3.4,1.5,7.1,2.2,10.8,2.2s9-1.3,12.1-3.7c3.2-2.4,6-6.7,8.6-12.7l6.5-14.9,2.6-3.5,44.3-103.9h26.3l-55.1,127.2c-3.7,8.6-7.7,15.5-12.1,20.6s-9.5,8.6-14.9,10.8c-5.4,2.1-11.4,3.2-17.9,3.2v-.4h0ZM8889.7,1981.2l-53.1-121.8h28.4l43.3,101.4-18.7,20.2h0v.2Z"/>
      <path class="st1" d="M9162.1,1979.5l-88-84.6c-5-4.9-9-9.3-12.1-13.5-3-4.1-5.2-8.2-6.5-12-1.3-3.7-2.1-7.8-2.1-12,0-7.1,1.9-13.5,5.4-18.9,3.5-5.4,8.8-9.7,15.7-12.7,6.9-3,14.8-4.5,23.7-4.5s15.3,1.3,21.5,4.1c6.2,2.8,11,6.5,14.4,11.6,3.4,5,5.2,11,5.2,18.1s-1.5,11.8-4.5,17-7.8,10.1-14.4,14.9c-6.5,4.7-15.3,9.5-26.2,14.8-8,4.1-14.4,7.8-19.2,11.4-4.7,3.4-8,6.9-10.1,10.5-2.1,3.5-3,7.3-3,11.4s1.3,8,3.9,11.4c2.6,3.4,6.2,5.8,10.8,7.7,4.7,1.9,10.3,2.8,16.4,2.8,9.3,0,17.9-2.1,25.6-6.2,7.7-4.1,14.2-10.5,19.4-18.9,5.2-8.4,9.2-18.9,11.4-31.2l22,7.1c-3,14.9-8.2,27.8-15.7,38.5-7.5,10.6-16.8,18.9-27.6,24.5s-23.4,8.6-37.2,8.6-20.4-1.7-28.8-5.2c-8.4-3.5-15.1-8.4-20-14.6s-7.3-13.3-7.3-21.1,1.7-14.2,4.9-20c3.2-5.8,8.4-11.4,15.3-16.8,6.9-5.4,16.1-10.8,27.3-16.3,8.6-4.3,15.5-8,20.4-11.2,4.9-3.2,8.4-6.4,10.3-9.3,2.1-3,3-6,3-9.2s-1.5-8-4.7-10.6c-3.2-2.8-7.5-4.1-13.3-4.1s-11,1.5-14.4,4.5c-3.4,3-5.2,6.9-5.2,11.6s.4,5.2,1.3,7.5c.9,2.4,2.6,5,5.2,7.8,2.6,3,6.2,6.7,10.8,11.2l81.5,78.1-15.1,17.7h-.2Z"/>
      <path class="st1" d="M9262.6,1977.1v-154.1h28.6v154.1h-28.6Z"/>
      <path class="st1" d="M9330.4,1977.1v-117.5h26.2v31.9l-4.7-9.9c3.9-7.5,9.9-13.3,17.7-17.4,7.8-4.1,17-6.2,27.3-6.2s17.9,1.9,25.2,5.4c7.3,3.7,13.1,9.3,17.4,17,4.3,7.7,6.5,17.4,6.5,29.3v67.4h-27.5v-63.9c0-10.5-2.4-18.1-7.3-23.4-4.9-5.2-11.8-7.7-20.7-7.7s-12.1,1.3-17.2,3.9c-5,2.6-8.8,6.5-11.6,11.8s-4.1,11.8-4.1,19.6v59.4h-27.3,0Z"/>
      <path class="st1" d="M9481.3,1977.1v-117.5h26.2v31.9l-4.7-9.9c3.9-7.5,9.9-13.3,17.7-17.4,7.8-4.1,17-6.2,27.3-6.2s17.9,1.9,25.2,5.4c7.3,3.7,13.1,9.3,17.4,17,4.3,7.7,6.5,17.4,6.5,29.3v67.4h-27.5v-63.9c0-10.5-2.4-18.1-7.3-23.4-4.9-5.2-11.8-7.7-20.7-7.7s-12.1,1.3-17.2,3.9c-5,2.6-8.8,6.5-11.6,11.8s-4.1,11.8-4.1,19.6v59.4h-27.3,0Z"/>
      <path class="st1" d="M9685,1978.5c-12,0-22.6-2.6-31.9-7.8-9.5-5.2-17-12.3-22.4-21.5-5.4-9.2-8.2-19.4-8.2-31s2.8-22.2,8.2-31.2c5.4-9,12.9-16.1,22.2-21.3,9.3-5.2,20.2-7.8,32.1-7.8s23,2.6,32.5,7.8,16.8,12.3,22.2,21.3c5.4,9,8,19.4,8,31.2s-2.6,22-8,31.2c-5.4,9-12.9,16.1-22.4,21.3-9.5,5.2-20.4,7.8-32.3,7.8h0ZM9685,1955.2c6.7,0,12.7-1.5,18.1-4.5,5.2-3,9.3-7.3,12.5-13.1,3-5.6,4.5-12.1,4.5-19.4s-1.5-14-4.5-19.4-7.1-9.7-12.5-12.7c-5.2-3-11.2-4.5-17.7-4.5s-12.5,1.5-17.7,4.5c-5.2,3-9.5,7.3-12.5,12.7-3.2,5.4-4.7,12-4.7,19.4s1.5,13.8,4.7,19.4c3,5.6,7.3,9.9,12.5,13.1,5.2,3,11.2,4.5,17.6,4.5h-.2Z"/>
      <path class="st1" d="M9802.1,1977.1l-50.4-117.5h28.4l43.5,103.7h-14l44.8-103.7h26.3l-50.4,117.5h-28.4.2Z"/>
      <path class="st1" d="M9928.4,1978.5c-8.8,0-16.4-1.5-23.2-4.5-6.5-3-11.8-7.1-15.3-12.5-3.5-5.4-5.4-11.4-5.4-18.1s1.5-12.5,4.7-17.7c3.2-5.2,8.4-9.5,15.5-12.5,7.1-3.2,16.8-4.7,28.6-4.7h34.2v18.3h-32.1c-9.3,0-15.5,1.5-18.9,4.5-3.4,3-5,6.7-5,11.4s2.1,8.8,6,11.6c3.9,3,9.5,4.5,16.4,4.5s12.9-1.5,18.1-4.7c5.4-3.2,9.3-7.7,11.8-13.6l4.5,16.4c-2.6,6.9-7.3,12.3-14,16.1s-15.3,5.8-26,5.8h.2v-.2ZM9965.4,1977.1v-23.9l-1.3-4.9v-41.7c0-8-2.4-14.4-7.3-18.9-4.9-4.5-12.3-6.7-22.4-6.7s-12.9,1.1-19.2,3.2c-6.4,2.1-11.8,4.9-16.3,8.6l-10.8-20c6.5-4.9,14-8.6,22.6-11,8.6-2.4,17.7-3.7,27.1-3.7,17.2,0,30.5,4.1,39.6,12.3,9.3,8.2,13.8,20.9,13.8,37.9v68.9h-26l.2-.2Z"/>
      <path class="st1" d="M10011,1881.4v-22h78.5v22h-78.5ZM10071,1978.5c-12.9,0-23-3.4-29.9-10.1-7.1-6.7-10.6-16.4-10.6-29.3v-105.7h27.3v104.8c0,5.6,1.5,9.9,4.5,13.1,3,3,7.1,4.7,12.3,4.7s11-1.7,14.9-4.9l7.8,19.6c-3.4,2.6-7.5,4.7-12.1,6-4.7,1.3-9.5,2.1-14.4,2.1h.2v-.2Z"/>
      <path class="st1" d="M10133.9,1840.1c-5.2,0-9.3-1.7-12.7-4.9-3.4-3.2-5-7.1-5-12s1.7-8.2,5-11.4c3.4-3.2,7.5-4.9,12.7-4.9s9.3,1.5,12.7,4.5c3.4,3,5,6.9,5,11.6s-1.7,8.8-4.9,12c-3.2,3.4-7.5,5-12.7,5h-.2ZM10120.3,1977.1v-117.5h27.3v117.5h-27.3Z"/>
      <path class="st1" d="M10236.5,1978.5c-12,0-22.6-2.6-31.9-7.8-9.5-5.2-17-12.3-22.4-21.5-5.4-9.2-8.2-19.4-8.2-31s2.8-22.2,8.2-31.2c5.4-9,12.9-16.1,22.2-21.3,9.3-5.2,20.2-7.8,32.1-7.8s23,2.6,32.5,7.8,16.8,12.3,22.2,21.3c5.4,9,8,19.4,8,31.2s-2.6,22-8,31.2c-5.4,9-12.9,16.1-22.4,21.3-9.5,5.2-20.4,7.8-32.3,7.8h0ZM10236.5,1955.2c6.7,0,12.7-1.5,18.1-4.5,5.2-3,9.3-7.3,12.5-13.1,3-5.6,4.5-12.1,4.5-19.4s-1.5-14-4.5-19.4-7.1-9.7-12.5-12.7c-5.2-3-11.2-4.5-17.7-4.5s-12.5,1.5-17.7,4.5c-5.2,3-9.5,7.3-12.5,12.7-3.2,5.4-4.7,12-4.7,19.4s1.5,13.8,4.7,19.4c3,5.6,7.3,9.9,12.5,13.1,5.2,3,11.2,4.5,17.6,4.5h-.2Z"/>
      <path class="st1" d="M10326,1977.1v-117.5h26.2v31.9l-4.7-9.9c3.9-7.5,9.9-13.3,17.7-17.4,7.8-4.1,17-6.2,27.3-6.2s17.9,1.9,25.2,5.4c7.3,3.7,13.1,9.3,17.4,17,4.3,7.7,6.5,17.4,6.5,29.3v67.4h-27.5v-63.9c0-10.5-2.4-18.1-7.3-23.4s-11.8-7.7-20.7-7.7-12.1,1.3-17.2,3.9c-5,2.6-8.8,6.5-11.6,11.8s-4.1,11.8-4.1,19.6v59.4h-27.3,0Z"/>
    </g>
  </g>
</svg>