<?xml version="1.0" encoding="UTF-8"?>
<svg id="Layer_1" xmlns="http://www.w3.org/2000/svg" version="1.1" viewBox="0 0 3000 3000">
  <!-- Generator: Adobe Illustrator 29.5.1, SVG Export Plug-In . SVG Version: 2.1.0 Build 141)  -->
  <defs>
    <style>
      .st0 {
        fill: #438280;
      }

      .st1 {
        fill: #254949;
      }
    </style>
  </defs>
  <g>
    <path class="st1" d="M1400.5,1694.6s-482.9-1.8-485.1-1.8l133.6-133.6,132-132,288.1,288.1,31.1,31.1h0v-62.4c0,0-147.1-147.1-147.1-147.1l-156.5-156.6h0s0,0,0,0l-6.5-6.5-9.1-9.1h0l-147-147,147-147.1,319.2,319.2v-62.4l-114-114-32.7-32.7-172.5-172.5-728.9,729,994.7-.5-46.3-42.3ZM867.3,1678.5l-14.7,14.7h-294.1l444.3-444.3,147.1,147.1-261.9,261.9-20.6,20.6Z"/>
    <polyline class="st0" points="1500.2 2103 1500.2 2040.6 1353.2 1893.6 1477.9 1768.8 1446.7 1737.6 1290.9 1893.6"/>
    <polygon class="st0" points="1500.2 897.7 1368.7 1151.5 1401.4 1184.2 1500.2 993.6 1500.2 897.7"/>
  </g>
  <g>
    <path class="st1" d="M1553.6,1736.9l994.7.5-728.9-729-172.5,172.5-32.7,32.7-114,114v62.4s319.2-319.2,319.2-319.2l147,147.1-147,147h0l-9.1,9.1-6.5,6.5h0s0,0,0,0l-156.5,156.6-147.1,147.1v62.4c0,0,0,0,0,0l31.1-31.1,288.1-288.1,132,132,133.6,133.6c-2.2,0-485.1,1.8-485.1,1.8l-46.3,42.3ZM2112.5,1657.9l-261.9-261.9,147.1-147.1,444.3,444.3h-294.1s-14.7-14.7-14.7-14.7l-20.6-20.6Z"/>
    <polyline class="st0" points="1647.2 1893.6 1522.4 1768.8 1553.6 1737.6 1709.5 1893.6 1500.1 2103 1500.1 2040.6"/>
    <polygon class="st0" points="1500.2 897.7 1631.7 1151.5 1599 1184.2 1500.2 993.6 1500.2 897.7"/>
  </g>
</svg>